<?xml version="1.0" standalone="no"?><!DOCTYPE svg PUBLIC "-//W3C//DTD SVG 1.1//EN" "http://www.w3.org/Graphics/SVG/1.1/DTD/svg11.dtd"><svg t="1607914106589" class="icon" viewBox="0 0 1080 1024" version="1.1" xmlns="http://www.w3.org/2000/svg" p-id="1284" xmlns:xlink="http://www.w3.org/1999/xlink" width="316.40625" height="300"><defs><style type="text/css"></style></defs><path d="M322.56 103.594667L96.540444 416.711111a113.777778 113.777778 0 0 0 0 133.176889l226.019556 313.059556A56.888889 56.888889 0 1 0 414.72 796.444444L188.871111 483.271111 414.72 170.211556a56.888889 56.888889 0 1 0-92.216889-66.56z" p-id="1285" fill="#1890ff"></path><path d="M540.216889 140.174222a148.821333 148.821333 0 0 1 238.648889 0l193.991111 260.266667c39.025778 52.337778 39.424 123.904 0.967111 176.64l-193.991111 266.183111a148.821333 148.821333 0 0 1-240.526222 0l-194.048-266.183111a148.821333 148.821333 0 0 1 0.910222-176.64l194.048-260.266667zM437.191111 510.065778l193.991111 266.183111a35.043556 35.043556 0 0 0 56.661334 0l194.048-266.24a35.043556 35.043556 0 0 0-0.227556-41.528889l-193.991111-260.323556a35.043556 35.043556 0 0 0-56.206222 0L437.418667 468.48a35.043556 35.043556 0 0 0-0.227556 41.528889z" p-id="1286" fill="#1890ff"></path></svg>